<?xml version="1.0" standalone="no"?>
<!DOCTYPE svg PUBLIC "-//W3C//DTD SVG 20010904//EN"
 "http://www.w3.org/TR/2001/REC-SVG-20010904/DTD/svg10.dtd">
<svg version="1.0" xmlns="http://www.w3.org/2000/svg"
 width="372.000000pt" height="203.000000pt" viewBox="0 0 372.000000 203.000000"
 preserveAspectRatio="xMidYMid meet">

<g transform="translate(0.000000,203.000000) scale(0.100000,-0.100000)"
fill="#000000" stroke="none">
<path d="M596 1689 c-19 -22 -51 -74 -71 -115 -34 -69 -37 -83 -45 -205 -5
-72 -11 -134 -14 -136 -5 -6 -11 27 -27 147 -13 102 -46 178 -121 272 -29 36
-54 65 -55 64 -1 -1 5 -59 13 -130 16 -142 31 -179 107 -281 24 -33 50 -70 56
-83 19 -36 43 -202 38 -262 -3 -30 -3 -45 0 -32 2 12 8 22 12 22 13 0 21 -55
21 -141 0 -43 5 -89 11 -103 14 -30 -4 -201 -26 -249 -13 -26 -14 -28 -11 -7
12 66 16 190 7 235 l-9 50 -2 -80 c-2 -78 -3 -79 -10 -30 -8 52 -74 236 -106
296 -10 19 -17 41 -16 49 3 13 2 13 -8 0 -9 -12 -10 -9 -7 15 2 17 2 24 0 17
-6 -17 -33 4 -33 26 0 8 -3 12 -7 8 -4 -3 -27 13 -52 36 -38 36 -41 37 -16 8
17 -19 33 -36 38 -38 4 -2 7 -8 7 -14 0 -6 -12 -3 -27 6 -27 16 -27 16 2 -8
17 -14 34 -26 38 -26 22 0 91 -116 112 -187 12 -41 -12 -24 -29 20 -20 54 -66
109 -121 147 l-44 30 16 -37 c35 -85 55 -112 135 -185 66 -60 85 -84 94 -117
l11 -42 -32 38 c-18 21 -48 47 -66 57 -39 22 -31 12 24 -28 49 -36 76 -91 82
-168 l5 -63 -15 53 c-14 51 -82 158 -124 196 -11 10 -18 23 -15 30 2 6 -17 32
-43 56 l-47 45 39 -49 39 -49 -30 6 -29 6 30 -13 c29 -14 102 -93 93 -102 -3
-2 -36 10 -74 27 -74 34 -136 36 -199 8 l-30 -13 55 -7 c30 -4 96 -11 147 -17
144 -14 178 -49 178 -187 0 -63 -5 -89 -23 -122 -12 -23 -22 -49 -22 -58 0
-26 18 -17 29 16 6 17 15 28 20 25 4 -3 26 10 46 30 63 59 81 67 148 67 50 0
56 2 32 9 -16 4 -46 5 -65 1 -32 -6 -34 -5 -21 11 31 37 63 45 162 39 74 -4
101 -2 124 10 37 19 81 64 72 74 -8 7 -76 -6 -203 -40 -106 -29 -127 -39 -173
-81 -38 -36 -38 -35 11 60 27 52 59 92 126 156 50 47 105 102 123 122 l32 37
-99 -52 c-55 -28 -106 -57 -115 -65 -8 -8 -20 -14 -26 -14 -10 0 -23 -45 -23
-81 0 -25 -36 -120 -55 -145 -13 -16 -13 -13 1 26 18 53 40 266 30 303 -9 38
-31 24 -44 -26 -9 -36 -9 -30 -5 39 4 49 1 88 -5 101 -6 11 -14 57 -18 101
l-7 81 32 31 c17 17 31 34 31 36 0 11 121 108 184 148 l28 18 -28 -53 c-27
-50 -96 -127 -158 -176 -42 -34 -43 -34 -38 0 3 22 1 29 -6 22 -11 -11 -17
-90 -13 -165 3 -38 4 -41 11 -20 4 14 8 44 9 68 1 47 7 55 97 124 33 26 69 59
79 75 33 49 95 166 91 170 -6 6 -126 -66 -188 -114 -33 -25 -75 -71 -100 -109
l-43 -65 -8 43 c-13 70 -1 117 63 253 34 72 67 157 75 190 14 67 28 175 21
175 -3 0 -20 -18 -40 -41z m-11 -114 c-24 -98 -94 -283 -94 -250 -1 54 20 165
38 205 25 56 72 142 76 138 2 -2 -7 -43 -20 -93z m-211 -50 c12 -27 28 -75 35
-105 25 -119 30 -145 27 -148 -7 -7 -99 141 -116 186 -10 26 -20 79 -24 117
l-7 70 31 -35 c17 -19 41 -57 54 -85z m-38 -667 c8 -16 13 -28 11 -28 -7 0
-107 128 -107 136 1 13 78 -75 96 -108z m230 -143 c-4 -14 -11 -25 -16 -25
-10 0 -4 43 8 65 9 15 14 -14 8 -40z m178 -5 c-22 -16 -44 -34 -50 -39 -6 -5
-17 -6 -24 -1 -8 5 3 15 35 31 25 13 49 27 51 31 3 4 10 8 16 8 6 0 -7 -13
-28 -30z m-505 -36 c29 -8 51 -17 49 -19 -2 -2 -36 2 -76 8 -40 7 -70 16 -66
20 11 11 35 9 93 -9z m308 -81 c-3 -43 -13 -96 -21 -118 -9 -22 -14 -29 -11
-15 2 14 10 67 17 118 7 50 14 92 17 92 2 0 1 -35 -2 -77z m98 22 c-15 -19
-30 -34 -32 -31 -7 7 25 64 39 69 22 8 21 -1 -7 -38z m260 -95 c-46 -31 -86
-41 -120 -31 -22 7 -25 10 -10 11 11 1 45 10 75 20 72 25 92 25 55 0z"/>
<path d="M110 1438 c0 -3 7 -29 16 -59 27 -92 59 -136 134 -184 44 -28 79 -60
96 -87 35 -56 82 -182 105 -288 17 -77 19 -79 13 -25 -4 33 -7 70 -6 83 0 12
-4 22 -8 22 -5 0 -22 42 -39 94 -37 113 -126 273 -190 339 -45 47 -121 113
-121 105z m153 -181 c65 -80 62 -85 -17 -23 -41 32 -96 109 -96 135 0 18 39
-20 113 -112z"/>
<path d="M657 1381 c-19 -22 -45 -61 -56 -87 -12 -26 -33 -62 -46 -80 -36 -47
-31 -52 8 -7 17 21 54 58 80 83 27 24 58 58 69 74 13 19 -3 7 -40 -29 -34 -33
-62 -56 -62 -52 0 18 34 74 63 105 17 17 28 32 25 32 -3 0 -22 -18 -41 -39z"/>
<path d="M1180 995 l0 -215 95 0 c150 0 205 33 205 124 0 42 -5 55 -30 81 -30
31 -30 31 -10 50 15 13 20 30 20 64 -1 84 -45 111 -185 111 l-95 0 0 -215z
m216 141 c20 -28 17 -63 -6 -86 -16 -16 -33 -20 -85 -20 l-65 0 0 58 c0 32 3
61 6 65 3 3 35 5 71 4 51 -2 68 -6 79 -21z m11 -182 c20 -20 24 -31 19 -57 -3
-18 -13 -37 -22 -43 -21 -16 -99 -27 -134 -19 -30 7 -30 7 -30 76 l0 69 70 0
c63 0 74 -3 97 -26z"/>
<path d="M2761 1192 c-13 -25 8 -56 35 -50 29 5 27 62 -3 66 -13 2 -26 -4 -32
-16z"/>
<path d="M795 1140 c-76 -51 -245 -210 -245 -230 0 -7 10 0 22 15 12 15 54 43
94 61 39 18 87 46 107 63 34 30 104 128 96 135 -2 1 -36 -18 -74 -44z m-16
-51 c-19 -22 -50 -49 -69 -61 -28 -16 -22 -8 28 41 72 70 90 79 41 20z"/>
<path d="M1907 1174 c-4 -4 -7 -27 -7 -51 0 -39 -2 -43 -25 -43 -18 0 -25 -5
-25 -20 0 -15 7 -20 25 -20 25 0 25 -1 25 -89 0 -49 4 -101 10 -116 18 -46 96
-65 137 -33 21 16 3 40 -26 35 -53 -10 -61 4 -61 108 l0 95 50 0 c43 0 50 3
50 20 0 17 -7 20 -49 20 l-50 0 -3 48 c-2 38 -7 48 -23 50 -12 2 -24 0 -28 -4z"/>
<path d="M1615 1076 c-41 -18 -83 -69 -91 -111 -19 -105 47 -185 153 -185 88
0 153 63 153 149 0 113 -114 191 -215 147z m126 -61 c20 -13 40 -76 34 -106
-9 -39 -59 -79 -99 -79 -60 0 -110 62 -99 122 6 33 47 76 76 80 23 4 68 -5 88
-17z"/>
<path d="M2167 1076 c-20 -8 -44 -19 -52 -26 -14 -11 -14 -15 1 -31 15 -17 18
-17 47 -2 34 17 103 21 117 7 4 -5 10 -17 12 -28 3 -16 -5 -19 -56 -23 -66 -5
-107 -22 -130 -55 -25 -35 -20 -76 13 -109 25 -24 38 -29 78 -29 28 0 58 7 71
16 20 14 23 14 28 0 3 -9 17 -16 30 -16 24 0 24 0 24 115 0 133 -11 167 -61
184 -41 14 -75 13 -122 -3z m123 -179 c0 -20 -7 -40 -17 -49 -49 -43 -127 -23
-121 30 4 33 38 52 96 52 41 0 42 -1 42 -33z"/>
<path d="M2524 1081 c-12 -5 -25 -14 -29 -20 -9 -16 -25 -13 -25 4 0 9 -9 15
-25 15 l-25 0 0 -150 0 -150 25 0 c25 0 25 1 25 84 0 131 20 166 93 166 58 0
71 -25 75 -146 4 -102 5 -104 28 -104 24 0 24 1 24 100 0 106 -12 151 -48 183
-24 22 -87 31 -118 18z"/>
<path d="M2960 1067 c-52 -27 -80 -75 -80 -135 0 -89 49 -143 135 -150 54 -4
98 11 125 43 11 13 11 18 -3 32 -14 14 -18 14 -50 -6 -41 -25 -70 -27 -107 -4
-87 51 -52 183 48 183 24 0 49 -8 64 -20 25 -19 26 -19 43 0 22 24 13 37 -39
61 -54 25 -84 24 -136 -4z"/>
<path d="M3290 1084 c-48 -16 -90 -39 -90 -49 0 -27 22 -34 54 -18 62 32 149
12 133 -31 -5 -12 -20 -16 -57 -16 -60 0 -114 -20 -129 -48 -20 -38 -13 -91
15 -117 21 -20 38 -25 78 -25 30 0 61 6 74 16 20 14 22 14 22 0 0 -10 9 -16
25 -16 l25 0 0 121 c0 66 -5 129 -10 140 -20 37 -91 59 -140 43z m100 -183 c0
-69 -110 -107 -141 -49 -24 44 14 76 94 77 46 1 47 0 47 -28z"/>
<path d="M270 1071 c0 -6 4 -13 10 -16 6 -3 7 1 4 9 -7 18 -14 21 -14 7z"/>
<path d="M310 1060 c6 -11 13 -20 16 -20 2 0 0 9 -6 20 -6 11 -13 20 -16 20
-2 0 0 -9 6 -20z"/>
<path d="M2760 930 l0 -150 30 0 30 0 0 150 0 150 -30 0 -30 0 0 -150z"/>
<path d="M855 926 c-16 -13 -34 -24 -38 -24 -13 -1 -78 -56 -88 -74 -8 -15 -6
-16 20 -7 33 12 116 81 132 110 12 24 10 24 -26 -5z"/>
<path d="M671 894 c0 -11 3 -14 6 -6 3 7 2 16 -1 19 -3 4 -6 -2 -5 -13z"/>
<path d="M625 866 c-9 -14 -15 -33 -13 -43 3 -13 9 -7 21 21 20 46 16 58 -8
22z"/>
<path d="M637 769 c-9 -40 -16 -73 -15 -74 2 -1 18 21 37 49 19 28 27 45 19
38 -14 -11 -16 -9 -13 23 6 58 -9 40 -28 -36z"/>
<path d="M218 783 c7 -3 16 -2 19 1 4 3 -2 6 -13 5 -11 0 -14 -3 -6 -6z"/>
<path d="M866 618 c-16 -12 -45 -23 -65 -23 -20 -1 -53 -9 -73 -18 -42 -18
-108 -67 -108 -81 0 -4 18 8 39 27 22 20 56 39 75 43 20 3 36 10 36 14 0 4 11
5 25 2 17 -3 39 5 65 22 22 14 40 28 40 31 0 7 -3 6 -34 -17z"/>
</g>
</svg>
